# Blender v2.77 (sub 0) OBJ File: ''
# www.blender.org
o Chess_Board1_Board
v -1.645018 0.209098 1.645066
v -1.637796 0.209098 1.637845
v -1.637839 0.209099 -1.637888
v -1.645061 0.209099 -1.645110
v 1.900481 0.017442 1.900339
v 1.890979 0.017442 1.890837
v -1.890832 0.017442 1.890887
v -1.900334 0.017442 1.900389
v 1.900431 0.017443 -1.900476
v 1.890930 0.017443 -1.890974
v -1.900384 0.017442 -1.900426
v -1.890882 0.017442 -1.890924
v 1.847269 0.017442 1.847129
v -1.847123 0.017442 1.847177
v 1.847221 0.017443 -1.847264
v -1.847172 0.017442 -1.847215
v 1.847269 0.207483 1.847129
v 1.838717 0.207483 1.838577
v -1.838572 0.207482 1.838625
v -1.847123 0.207482 1.847177
v 1.847221 0.207484 -1.847264
v 1.838669 0.207484 -1.838712
v -1.847172 0.207483 -1.847215
v -1.838620 0.207483 -1.838664
v 1.837102 0.209098 1.836962
v 1.822279 0.209098 1.822139
v -1.822133 0.209098 1.822187
v -1.836956 0.209098 1.837010
v 1.837054 0.209099 -1.837097
v 1.822231 0.209099 -1.822273
v -1.837005 0.209099 -1.837048
v -1.822181 0.209099 -1.822225
v -1.820518 0.207482 1.820571
v 1.820663 0.207483 1.820523
v 1.646774 0.207483 1.646638
v -1.646633 0.207482 1.646682
v 1.820615 0.207484 -1.820658
v 1.646730 0.207484 -1.646768
v -1.820566 0.207483 -1.820610
v -1.646676 0.207483 -1.646725
v 1.645115 0.209099 -1.645153
v 1.637894 0.209099 -1.637931
v 1.637937 0.209098 1.637801
v 1.645158 0.209098 1.645023
v -1.636224 0.207483 -1.636273
v -1.636181 0.207482 1.636229
v -1.900334 0.207482 1.900389
v -1.890832 0.207482 1.890887
v 1.890979 0.207483 1.890837
v 1.900481 0.207483 1.900339
v 1.890930 0.207484 -1.890974
v 1.900431 0.207484 -1.900476
v -1.890882 0.207483 -1.890924
v -1.900384 0.207483 -1.900426
v 1.900481 0.204515 1.900339
v -1.900334 0.204515 1.900389
v 1.900431 0.204516 -1.900476
v -1.900384 0.198507 -1.900426
v 1.900431 0.198507 -1.900476
v -1.900334 0.198506 1.900389
v 1.900481 0.198506 1.900339
v -1.900384 0.204516 -1.900426
v 1.636321 0.207483 1.636186
v 1.636278 0.207484 -1.636316
v -1.227118 0.207482 1.636224
v -1.227123 0.207483 1.227161
v -1.636186 0.207483 1.227166
v -1.636181 0.207482 1.636229
v -1.227129 0.207483 0.818098
v -1.636192 0.207483 0.818104
v -0.818061 0.207483 1.227156
v -0.818066 0.207483 0.818093
v -0.818055 0.207483 1.636218
v -1.227134 0.207483 0.409036
v -1.636197 0.207483 0.409041
v -1.227140 0.207483 -0.000027
v -1.636202 0.207483 -0.000022
v -0.818071 0.207483 0.409030
v -0.818077 0.207483 -0.000033
v -0.409003 0.207483 0.818088
v -0.409009 0.207483 0.409025
v -0.409014 0.207483 -0.000038
v 0.000054 0.207483 0.409019
v 0.000049 0.207483 -0.000043
v 0.000059 0.207483 0.818082
v -0.408992 0.207483 1.636213
v -0.408998 0.207483 1.227150
v 0.000065 0.207483 1.227145
v 0.000070 0.207483 1.636208
v -1.227145 0.207483 -0.409090
v -1.636208 0.207483 -0.409085
v -1.227150 0.207483 -0.818153
v -1.636213 0.207483 -0.818147
v -0.818082 0.207483 -0.409095
v -0.818088 0.207483 -0.818158
v -1.227156 0.207483 -1.227216
v -1.636218 0.207483 -1.227210
v -1.227161 0.207483 -1.636278
v -1.636224 0.207483 -1.636273
v -0.818093 0.207483 -1.227221
v -0.818098 0.207483 -1.636284
v -0.409025 0.207483 -0.818164
v -0.409030 0.207483 -1.227226
v -0.409036 0.207483 -1.636289
v 0.000033 0.207483 -1.227232
v 0.000027 0.207483 -1.636294
v 0.000038 0.207483 -0.818169
v -0.409019 0.207483 -0.409101
v 0.000043 0.207483 -0.409106
v 0.409111 0.207483 -0.000049
v 0.409106 0.207483 -0.409111
v 0.409101 0.207483 -0.818174
v 0.818169 0.207483 -0.409117
v 0.818164 0.207483 -0.818180
v 0.818174 0.207483 -0.000054
v 0.409095 0.207483 -1.227237
v 0.409090 0.207483 -1.636300
v 0.818158 0.207483 -1.227242
v 0.818153 0.207483 -1.636305
v 1.227226 0.207483 -0.818185
v 1.227221 0.207483 -1.227248
v 1.227216 0.207484 -1.636311
v 1.636284 0.207483 -1.227253
v 1.636278 0.207484 -1.636316
v 1.636289 0.207483 -0.818190
v 1.227237 0.207483 -0.000060
v 1.227232 0.207483 -0.409122
v 1.636294 0.207483 -0.409128
v 1.636300 0.207483 -0.000065
v 0.409133 0.207483 1.636202
v 0.409128 0.207483 1.227140
v 0.409122 0.207483 0.818077
v 0.818190 0.207483 1.227134
v 0.818185 0.207483 0.818071
v 0.818196 0.207483 1.636197
v 0.409117 0.207483 0.409014
v 0.818180 0.207483 0.409009
v 1.227248 0.207483 0.818066
v 1.227242 0.207483 0.409003
v 1.636305 0.207483 0.408998
v 1.636311 0.207483 0.818061
v 1.227259 0.207483 1.636191
v 1.227253 0.207483 1.227129
v 1.636316 0.207483 1.227123
v 1.636321 0.207483 1.636186
vt 0.7008 0.0392
vt 0.7002 0.3222
vt 0.7002 0.0386
vt 0.3425 0.6648
vt 0.0087 0.6639
vt 0.3433 0.6639
vt 0.3425 0.9907
vt 0.3433 0.9915
vt 0.0087 0.9915
vt 0.0095 0.6648
vt 0.3386 0.6685
vt 0.3386 0.9869
vt 0.0133 0.9869
vt 0.0095 0.9907
vt 0.0133 0.6685
vt 0.6859 0.6731
vt 0.3614 0.6739
vt 0.3606 0.6731
vt 0.6851 0.9908
vt 0.6859 0.9915
vt 0.3606 0.9915
vt 0.6845 0.3407
vt 0.3623 0.3394
vt 0.6858 0.3394
vt 0.6845 0.6548
vt 0.6858 0.6560
vt 0.3636 0.6548
vt 0.3623 0.6560
vt 0.3636 0.3407
vt 0.6843 0.3408
vt 0.3637 0.3408
vt 0.6674 0.0235
vt 0.3621 0.0085
vt 0.6827 0.0085
vt 0.6674 0.3073
vt 0.6827 0.3223
vt 0.3774 0.3073
vt 0.3621 0.3223
vt 0.3774 0.0235
vt 0.9892 0.3215
vt 0.9899 0.0386
vt 0.9899 0.3222
vt 0.7008 0.3215
vt 0.7009 0.0393
vt 0.7009 0.3214
vt 0.0095 0.6462
vt 0.3433 0.6470
vt 0.0087 0.6470
vt 0.3425 0.6462
vt 0.3433 0.3194
vt 0.3425 0.3202
vt 0.0087 0.3194
vt 0.0133 0.6424
vt 0.3386 0.6424
vt 0.3386 0.3240
vt 0.0095 0.3202
vt 0.0133 0.3240
vt 0.0087 0.2023
vt 0.3433 0.2025
vt 0.0087 0.2025
vt 0.0087 0.3022
vt 0.3433 0.3025
vt 0.0087 0.3025
vt 0.0087 0.2195
vt 0.3433 0.2351
vt 0.0087 0.2351
vt 0.0087 0.2528
vt 0.3433 0.2684
vt 0.0087 0.2684
vt 0.0087 0.1195
vt 0.3339 0.1359
vt 0.0087 0.1359
vt 0.0087 0.1528
vt 0.3339 0.1692
vt 0.0087 0.1692
vt 0.0087 0.0529
vt 0.3339 0.0692
vt 0.0087 0.0692
vt 0.0087 0.0862
vt 0.3339 0.1026
vt 0.0087 0.1026
vt 0.0087 0.2017
vt 0.3433 0.2023
vt 0.0087 0.3017
vt 0.3433 0.3022
vt 0.3433 0.2358
vt 0.0087 0.2356
vt 0.3433 0.2356
vt 0.3433 0.2692
vt 0.0087 0.2689
vt 0.3433 0.2689
vt 0.0087 0.1861
vt 0.3433 0.2017
vt 0.0087 0.2861
vt 0.3433 0.3017
vt 0.7000 0.3223
vt 0.7000 0.0384
vt 0.9891 0.0393
vt 0.9900 0.0384
vt 0.9892 0.0392
vt 0.9891 0.3214
vt 0.9900 0.3223
vt 0.3621 0.3392
vt 0.6859 0.3392
vt 0.6843 0.6546
vt 0.6859 0.6562
vt 0.3637 0.6546
vt 0.3621 0.6562
vt 0.7392 0.7095
vt 0.7032 0.7447
vt 0.7032 0.7095
vt 0.7392 0.7800
vt 0.7392 0.7447
vt 0.7752 0.7447
vt 0.7752 0.7095
vt 0.7032 0.8152
vt 0.7032 0.7800
vt 0.7392 0.8505
vt 0.7392 0.8152
vt 0.7752 0.8505
vt 0.7752 0.8152
vt 0.7752 0.7800
vt 0.8113 0.7800
vt 0.8113 0.8505
vt 0.8113 0.8152
vt 0.8473 0.8505
vt 0.8473 0.8152
vt 0.8473 0.7800
vt 0.8113 0.7447
vt 0.8113 0.7095
vt 0.8473 0.7447
vt 0.8473 0.7095
vt 0.7032 0.8858
vt 0.7032 0.8505
vt 0.7392 0.8858
vt 0.7032 0.9210
vt 0.7752 0.8858
vt 0.7392 0.9210
vt 0.7032 0.9563
vt 0.7392 0.9915
vt 0.7392 0.9563
vt 0.7752 0.9563
vt 0.7752 0.9210
vt 0.8113 0.9563
vt 0.8113 0.9210
vt 0.8113 0.9915
vt 0.8473 0.9563
vt 0.8473 0.9210
vt 0.8113 0.8858
vt 0.8473 0.8858
vt 0.8833 0.8858
vt 0.8833 0.8505
vt 0.8833 0.9210
vt 0.9193 0.8858
vt 0.9193 0.8505
vt 0.8833 0.9563
vt 0.8833 0.9915
vt 0.9193 0.9915
vt 0.9193 0.9563
vt 0.9193 0.9210
vt 0.9553 0.9563
vt 0.9553 0.9210
vt 0.9913 0.9563
vt 0.9553 0.9915
vt 0.9913 0.9210
vt 0.9553 0.8505
vt 0.9553 0.8858
vt 0.9913 0.8858
vt 0.9913 0.8505
vt 0.8833 0.7447
vt 0.8833 0.7095
vt 0.8833 0.7800
vt 0.9193 0.7447
vt 0.9193 0.7095
vt 0.8833 0.8152
vt 0.9193 0.8152
vt 0.9193 0.7800
vt 0.9553 0.7800
vt 0.9553 0.8152
vt 0.9913 0.8152
vt 0.9913 0.7800
vt 0.9553 0.7095
vt 0.9553 0.7447
vt 0.9913 0.7447
vt 0.9913 0.7095
vt 0.6851 0.6739
vt 0.3614 0.9908
vt 0.3433 0.2195
vt 0.3433 0.2528
vt 0.3339 0.1195
vt 0.3339 0.1528
vt 0.3339 0.0529
vt 0.3339 0.0862
vt 0.0087 0.2358
vt 0.0087 0.2692
vt 0.3433 0.1861
vt 0.3433 0.2861
vt 0.7032 0.9915
vt 0.7752 0.9915
vt 0.8473 0.9915
vt 0.9913 0.9915
vn -0.0000 1.0000 0.0000
vn -0.0000 0.7071 -0.7071
vn 0.7070 0.7072 -0.0000
vn 0.0000 -1.0000 0.0000
vn -0.0000 0.0000 -1.0000
vn -1.0000 0.0000 0.0000
vn 0.0000 0.0000 1.0000
vn 1.0000 0.0000 -0.0000
vn -0.7071 0.7071 0.0000
vn 0.0000 0.7071 0.7071
vn -0.7072 0.7070 0.0000
vn 0.7071 0.7071 -0.0000
vn -0.7070 0.7072 0.0000
vn 0.0000 0.7071 0.7072
s off
f 2/1/1 4/2/1 1/3/1
f 6/4/1 8/5/1 5/6/1
f 10/7/1 5/6/1 9/8/1
f 11/9/1 10/7/1 9/8/1
f 7/10/1 11/9/1 8/5/1
f 13/11/1 7/10/1 6/4/1
f 15/12/1 6/4/1 10/7/1
f 16/13/1 10/7/1 12/14/1
f 14/15/1 12/14/1 7/10/1
f 17/16/1 19/17/1 20/18/1
f 22/19/1 17/16/1 21/20/1
f 23/21/1 22/19/1 21/20/1
f 19/17/1 23/21/1 20/18/1
f 26/22/1 28/23/1 25/24/1
f 30/25/1 25/24/1 29/26/1
f 32/27/1 29/26/1 31/28/1
f 27/29/2 34/30/2 33/31/2
f 35/32/1 33/33/1 34/34/1
f 38/35/1 34/34/1 37/36/1
f 40/37/1 37/36/1 39/38/1
f 36/39/1 39/38/1 33/33/1
f 42/40/1 44/41/1 41/42/1
f 3/43/1 41/42/1 4/2/1
f 3/43/3 46/44/3 45/45/3
f 48/46/4 50/47/4 47/48/4
f 49/49/4 52/50/4 50/47/4
f 51/51/4 54/52/4 52/50/4
f 54/52/4 48/46/4 47/48/4
f 20/53/4 49/49/4 48/46/4
f 17/54/4 51/51/4 49/49/4
f 21/55/4 53/56/4 51/51/4
f 23/57/4 48/46/4 53/56/4
f 55/58/5 47/59/5 50/60/5
f 57/61/6 50/62/6 52/63/6
f 11/64/7 59/65/7 58/66/7
f 8/67/8 58/68/8 60/69/8
f 14/70/7 17/71/7 20/72/7
f 13/73/8 21/74/8 17/75/8
f 15/76/5 23/77/5 21/78/5
f 16/79/6 20/80/6 23/81/6
f 61/82/5 56/83/5 55/58/5
f 59/84/6 55/85/6 57/61/6
f 52/86/7 62/87/7 57/88/7
f 54/89/8 56/90/8 62/91/8
f 57/88/7 58/66/7 59/65/7
f 62/91/8 60/69/8 58/68/8
f 5/92/5 60/93/5 61/82/5
f 9/94/6 61/95/6 59/84/6
f 44/41/1 2/1/1 1/3/1
f 1/3/9 40/96/9 36/97/9
f 2/1/2 63/98/2 46/44/2
f 44/41/10 36/97/10 35/99/10
f 43/100/11 64/101/11 63/98/11
f 41/42/12 35/99/12 38/102/12
f 42/40/10 45/45/10 64/101/10
f 4/2/2 38/102/2 40/96/2
f 28/23/1 32/27/1 31/28/1
f 25/24/10 19/103/10 18/104/10
f 26/22/13 37/105/13 34/30/13
f 29/26/12 18/104/12 22/106/12
f 30/25/10 39/107/10 37/105/10
f 31/28/2 22/106/2 24/108/2
f 32/27/12 33/31/12 39/107/12
f 28/23/9 24/108/9 19/103/9
f 65/109/1 67/110/1 68/111/1
f 69/112/1 67/110/1 66/113/1
f 71/114/1 69/112/1 66/113/1
f 71/114/1 65/109/1 73/115/1
f 69/112/1 75/116/1 70/117/1
f 76/118/1 75/116/1 74/119/1
f 79/120/1 74/119/1 78/121/1
f 78/121/1 69/112/1 72/122/1
f 80/123/1 78/121/1 72/122/1
f 82/124/1 78/121/1 81/125/1
f 84/126/1 81/125/1 83/127/1
f 83/127/1 80/123/1 85/128/1
f 87/129/1 73/115/1 86/130/1
f 80/123/1 71/114/1 87/129/1
f 85/128/1 87/129/1 88/131/1
f 88/131/1 86/130/1 89/132/1
f 76/118/1 91/133/1 77/134/1
f 90/135/1 93/136/1 91/133/1
f 94/137/1 92/138/1 90/135/1
f 79/120/1 90/135/1 76/118/1
f 92/138/1 97/139/1 93/136/1
f 98/140/1 97/139/1 96/141/1
f 100/142/1 98/140/1 96/141/1
f 100/142/1 92/138/1 95/143/1
f 103/144/1 95/143/1 102/145/1
f 104/146/1 100/142/1 103/144/1
f 105/147/1 104/146/1 103/144/1
f 105/147/1 102/145/1 107/148/1
f 108/149/1 79/120/1 82/124/1
f 102/145/1 94/137/1 108/149/1
f 107/148/1 108/149/1 109/150/1
f 109/150/1 82/124/1 84/126/1
f 111/151/1 84/126/1 110/152/1
f 112/153/1 109/150/1 111/151/1
f 113/154/1 112/153/1 111/151/1
f 115/155/1 111/151/1 110/152/1
f 116/156/1 107/148/1 112/153/1
f 117/157/1 105/147/1 116/156/1
f 119/158/1 116/156/1 118/159/1
f 114/160/1 116/156/1 112/153/1
f 121/161/1 114/160/1 120/162/1
f 121/161/1 119/158/1 118/159/1
f 123/163/1 122/164/1 121/161/1
f 123/163/1 120/162/1 125/165/1
f 126/166/1 113/154/1 115/155/1
f 120/162/1 113/154/1 127/167/1
f 125/165/1 127/167/1 128/168/1
f 128/168/1 126/166/1 129/169/1
f 131/170/1 89/132/1 130/171/1
f 132/172/1 88/131/1 131/170/1
f 133/173/1 132/172/1 131/170/1
f 133/173/1 130/171/1 135/174/1
f 132/172/1 83/127/1 85/128/1
f 110/152/1 83/127/1 136/175/1
f 115/155/1 136/175/1 137/176/1
f 134/177/1 136/175/1 132/172/1
f 138/178/1 137/176/1 134/177/1
f 139/179/1 115/155/1 137/176/1
f 129/169/1 139/179/1 140/180/1
f 140/180/1 138/178/1 141/181/1
f 142/182/1 133/173/1 135/174/1
f 138/178/1 133/173/1 143/183/1
f 141/181/1 143/183/1 144/184/1
f 144/184/1 142/182/1 145/185/1
f 2/1/1 3/43/1 4/2/1
f 6/4/1 7/10/1 8/5/1
f 10/7/1 6/4/1 5/6/1
f 11/9/1 12/14/1 10/7/1
f 7/10/1 12/14/1 11/9/1
f 13/11/1 14/15/1 7/10/1
f 15/12/1 13/11/1 6/4/1
f 16/13/1 15/12/1 10/7/1
f 14/15/1 16/13/1 12/14/1
f 17/16/1 18/186/1 19/17/1
f 22/19/1 18/186/1 17/16/1
f 23/21/1 24/187/1 22/19/1
f 19/17/1 24/187/1 23/21/1
f 26/22/1 27/29/1 28/23/1
f 30/25/1 26/22/1 25/24/1
f 32/27/1 30/25/1 29/26/1
f 27/29/2 26/22/2 34/30/2
f 35/32/1 36/39/1 33/33/1
f 38/35/1 35/32/1 34/34/1
f 40/37/1 38/35/1 37/36/1
f 36/39/1 40/37/1 39/38/1
f 42/40/1 43/100/1 44/41/1
f 3/43/1 42/40/1 41/42/1
f 3/43/12 2/1/12 46/44/12
f 48/46/4 49/49/4 50/47/4
f 49/49/4 51/51/4 52/50/4
f 51/51/4 53/56/4 54/52/4
f 54/52/4 53/56/4 48/46/4
f 20/53/4 17/54/4 49/49/4
f 17/54/4 21/55/4 51/51/4
f 21/55/4 23/57/4 53/56/4
f 23/57/4 20/53/4 48/46/4
f 55/58/5 56/83/5 47/59/5
f 57/61/6 55/85/6 50/62/6
f 11/64/7 9/188/7 59/65/7
f 8/67/8 11/189/8 58/68/8
f 14/70/7 13/190/7 17/71/7
f 13/73/8 15/191/8 21/74/8
f 15/76/5 16/192/5 23/77/5
f 16/79/6 14/193/6 20/80/6
f 61/82/5 60/93/5 56/83/5
f 59/84/6 61/95/6 55/85/6
f 52/86/7 54/194/7 62/87/7
f 54/89/8 47/195/8 56/90/8
f 57/88/7 62/87/7 58/66/7
f 62/91/8 56/90/8 60/69/8
f 5/92/5 8/196/5 60/93/5
f 9/94/6 5/197/6 61/95/6
f 44/41/1 43/100/1 2/1/1
f 1/3/9 4/2/9 40/96/9
f 2/1/2 43/100/2 63/98/2
f 44/41/10 1/3/10 36/97/10
f 43/100/13 42/40/13 64/101/13
f 41/42/12 44/41/12 35/99/12
f 42/40/10 3/43/10 45/45/10
f 4/2/2 41/42/2 38/102/2
f 28/23/1 27/29/1 32/27/1
f 25/24/14 28/23/14 19/103/14
f 26/22/11 30/25/11 37/105/11
f 29/26/12 25/24/12 18/104/12
f 30/25/10 32/27/10 39/107/10
f 31/28/2 29/26/2 22/106/2
f 32/27/12 27/29/12 33/31/12
f 28/23/9 31/28/9 24/108/9
f 65/109/1 66/113/1 67/110/1
f 69/112/1 70/117/1 67/110/1
f 71/114/1 72/122/1 69/112/1
f 71/114/1 66/113/1 65/109/1
f 69/112/1 74/119/1 75/116/1
f 76/118/1 77/134/1 75/116/1
f 79/120/1 76/118/1 74/119/1
f 78/121/1 74/119/1 69/112/1
f 80/123/1 81/125/1 78/121/1
f 82/124/1 79/120/1 78/121/1
f 84/126/1 82/124/1 81/125/1
f 83/127/1 81/125/1 80/123/1
f 87/129/1 71/114/1 73/115/1
f 80/123/1 72/122/1 71/114/1
f 85/128/1 80/123/1 87/129/1
f 88/131/1 87/129/1 86/130/1
f 76/118/1 90/135/1 91/133/1
f 90/135/1 92/138/1 93/136/1
f 94/137/1 95/143/1 92/138/1
f 79/120/1 94/137/1 90/135/1
f 92/138/1 96/141/1 97/139/1
f 98/140/1 99/198/1 97/139/1
f 100/142/1 101/199/1 98/140/1
f 100/142/1 96/141/1 92/138/1
f 103/144/1 100/142/1 95/143/1
f 104/146/1 101/199/1 100/142/1
f 105/147/1 106/200/1 104/146/1
f 105/147/1 103/144/1 102/145/1
f 108/149/1 94/137/1 79/120/1
f 102/145/1 95/143/1 94/137/1
f 107/148/1 102/145/1 108/149/1
f 109/150/1 108/149/1 82/124/1
f 111/151/1 109/150/1 84/126/1
f 112/153/1 107/148/1 109/150/1
f 113/154/1 114/160/1 112/153/1
f 115/155/1 113/154/1 111/151/1
f 116/156/1 105/147/1 107/148/1
f 117/157/1 106/200/1 105/147/1
f 119/158/1 117/157/1 116/156/1
f 114/160/1 118/159/1 116/156/1
f 121/161/1 118/159/1 114/160/1
f 121/161/1 122/164/1 119/158/1
f 123/163/1 124/201/1 122/164/1
f 123/163/1 121/161/1 120/162/1
f 126/166/1 127/167/1 113/154/1
f 120/162/1 114/160/1 113/154/1
f 125/165/1 120/162/1 127/167/1
f 128/168/1 127/167/1 126/166/1
f 131/170/1 88/131/1 89/132/1
f 132/172/1 85/128/1 88/131/1
f 133/173/1 134/177/1 132/172/1
f 133/173/1 131/170/1 130/171/1
f 132/172/1 136/175/1 83/127/1
f 110/152/1 84/126/1 83/127/1
f 115/155/1 110/152/1 136/175/1
f 134/177/1 137/176/1 136/175/1
f 138/178/1 139/179/1 137/176/1
f 139/179/1 126/166/1 115/155/1
f 129/169/1 126/166/1 139/179/1
f 140/180/1 139/179/1 138/178/1
f 142/182/1 143/183/1 133/173/1
f 138/178/1 134/177/1 133/173/1
f 141/181/1 138/178/1 143/183/1
f 144/184/1 143/183/1 142/182/1
